<svg width="26" height="26" viewBox="0 0 26 26" fill="none" xmlns="http://www.w3.org/2000/svg">
<path d="M23.0195 6.73047V2.98047H2.98047V6.73047H23.0195ZM16.75 15.5195V13H9.25V15.5195H16.75ZM23.0195 0.519531C23.6445 0.519531 24.2109 0.773437 24.7188 1.28125C25.2266 1.75 25.4805 2.31641 25.4805 2.98047V6.78906C25.4805 7.72656 25.0703 8.42969 24.25 8.89844V23.0195C24.25 23.6836 23.9766 24.2695 23.4297 24.7773C22.8828 25.2461 22.3164 25.4805 21.7305 25.4805H4.26953C3.68359 25.4805 3.11719 25.2461 2.57031 24.7773C2.02344 24.2695 1.75 23.6836 1.75 23.0195V8.89844C0.929688 8.42969 0.519531 7.72656 0.519531 6.78906V2.98047C0.519531 2.31641 0.773438 1.75 1.28125 1.28125C1.78906 0.773437 2.35547 0.519531 2.98047 0.519531H23.0195Z" fill="white"/>
</svg>
