<svg width="376" height="194" viewBox="0 0 376 194" fill="none" xmlns="http://www.w3.org/2000/svg">
<g clip-path="url(#clip0_103_245)">
<path d="M18.8764 181.257L35.0329 155.566L18.869 184.056L18.8603 186.983C17.7077 186.97 16.5667 186.925 15.4373 186.85L16.7551 149.246L16.7378 148.955L16.7675 148.9L16.8929 145.346L0 117.189L16.9104 142.685L16.961 143.438L17.9564 115.026L3.43389 85.8943L18.0699 110.034L18.7507 51.1444L18.7539 50.9484L18.7562 51.1413L19.0877 97.5716L32.9648 78.9941L19.0754 101.571L19.011 127.001L31.8869 102.44L19.0039 130.74L18.9683 144.88L37.6717 110.683L18.9536 149.813L18.8764 181.257Z" fill="#D0CDE1"/>
<path d="M245.651 72.8195H241.109V105.133H245.651V72.8195Z" fill="#3F3D56"/>
<path d="M77.5769 4.0511L75.8687 8.26819L243.952 76.6267L245.661 72.4096L77.5769 4.0511Z" fill="#3F3D56"/>
<path d="M376 185.534C368.964 197.311 -0.371021 196.322 0.188624 185.533C7.22368 173.757 376.559 174.746 376 185.534Z" fill="#D0CDE1"/>
<path d="M329.681 137.902H290.165V153.376H329.681V137.902Z" fill="#3F3D56"/>
<path d="M326.048 151.555H131.188V168.85H326.048V151.555Z" fill="#3F3D56"/>
<path d="M294.025 160.203H247.241V101.265H282.216L294.025 130.99V160.203Z" fill="#D0CDE1"/>
<path d="M274.494 104.906H254.508V124.931H274.494V104.906Z" fill="white"/>
<path d="M289.483 125.159H276.765V105.133H282.216L289.483 125.159Z" fill="white"/>
<path d="M259.959 136.309H255.417V144.956H259.959V136.309Z" fill="#3F3D56"/>
<path d="M280.626 117.877H280.853C281.998 117.877 283.095 118.332 283.904 119.143C284.714 119.954 285.168 121.053 285.168 122.2C285.168 123.347 284.714 124.447 283.904 125.257C283.095 126.068 281.998 126.524 280.853 126.524H280.626V117.877Z" fill="#3F3D56"/>
<path d="M111.657 151.555H111.884C113.029 151.555 114.126 152.011 114.936 152.822C115.745 153.633 116.199 154.732 116.199 155.879C116.199 157.026 115.745 158.126 114.936 158.936C114.126 159.747 113.029 160.203 111.884 160.203H111.657V151.555Z" fill="#3F3D56"/>
<path d="M312.194 151.49C319.115 151.49 325.341 154.85 329.661 160.203H338.538L329.908 136.115L289.71 128.171L290.846 160.203H294.726C299.046 154.85 305.272 151.49 312.194 151.49Z" fill="#D0CDE1"/>
<path d="M312.648 185.69C323.56 185.69 332.407 176.826 332.407 165.892C332.407 154.958 323.56 146.094 312.648 146.094C301.736 146.094 292.89 154.958 292.89 165.892C292.89 176.826 301.736 185.69 312.648 185.69Z" fill="#3F3D56"/>
<path d="M312.648 176.312C318.392 176.312 323.047 171.647 323.047 165.892C323.047 160.137 318.392 155.472 312.648 155.472C306.905 155.472 302.249 160.137 302.249 165.892C302.249 171.647 306.905 176.312 312.648 176.312Z" fill="#D0CDE1"/>
<path d="M134.141 185.462C143.673 185.462 151.401 177.719 151.401 168.167C151.401 158.616 143.673 150.873 134.141 150.873C124.608 150.873 116.88 158.616 116.88 168.167C116.88 177.719 124.608 185.462 134.141 185.462Z" fill="#3F3D56"/>
<path d="M134.141 177.27C139.158 177.27 143.225 173.195 143.225 168.167C143.225 163.14 139.158 159.065 134.141 159.065C129.124 159.065 125.057 163.14 125.057 168.167C125.057 173.195 129.124 177.27 134.141 177.27Z" fill="#D0CDE1"/>
<path d="M248.604 93.0724H239.065V162.023H248.604V93.0724Z" fill="#3F3D56"/>
<path d="M248.603 149.507H111.43V153.604H248.603V149.507Z" fill="#3F3D56"/>
<path d="M187.618 123.76L38.0205 164.54L39.0937 168.493L188.691 127.712L187.618 123.76Z" fill="#3F3D56"/>
<path d="M177.407 128.728L174.845 130.615L190.582 152.072L193.144 150.186L177.407 128.728Z" fill="#3F3D56"/>
<path d="M283.351 126.069H278.809V127.889H283.351V126.069Z" fill="#3F3D56"/>
<path d="M243.38 139.722H183.877C183.768 139.722 183.663 139.683 183.58 139.611C183.498 139.54 183.444 139.441 183.428 139.333C183.412 139.224 183.436 139.114 183.495 139.022C183.554 138.93 183.644 138.862 183.748 138.831L241.888 121.536C241.953 121.517 242.021 121.513 242.088 121.523C242.155 121.534 242.219 121.559 242.275 121.597C242.33 121.636 242.377 121.686 242.411 121.745C242.445 121.804 242.465 121.869 242.47 121.937L243.833 139.231C243.838 139.294 243.83 139.357 243.809 139.416C243.789 139.476 243.756 139.53 243.714 139.576C243.671 139.622 243.619 139.659 243.562 139.684C243.505 139.709 243.443 139.722 243.38 139.722ZM187.003 138.812H242.888L241.609 122.569L187.003 138.812Z" fill="#3F3D56"/>
<path d="M82.2511 119.697H82.2468L69.2074 119.574C69.1437 119.573 69.0809 119.559 69.023 119.533C68.9651 119.506 68.9134 119.468 68.8712 119.42C68.8291 119.372 68.7974 119.316 68.7783 119.255C68.7592 119.195 68.753 119.13 68.7603 119.067L75.5354 59.8338C75.5481 59.7228 75.6011 59.6204 75.6844 59.546C75.7676 59.4716 75.8752 59.4305 75.9867 59.4305H75.9887C76.1006 59.431 76.2083 59.4729 76.2913 59.548C76.3743 59.6232 76.4267 59.7264 76.4385 59.8378L82.7028 119.194C82.7095 119.258 82.7028 119.322 82.6831 119.382C82.6635 119.443 82.6313 119.499 82.5887 119.546C82.5461 119.594 82.494 119.632 82.4359 119.658C82.3777 119.684 82.3147 119.697 82.2511 119.697ZM69.7204 118.669L81.7458 118.782L75.9685 64.0415L69.7204 118.669Z" fill="#3F3D56"/>
<path d="M332.878 144.554L332.666 144.635C331.595 145.04 330.408 145.003 329.364 144.532C328.321 144.06 327.508 143.193 327.103 142.12C326.698 141.048 326.735 139.858 327.206 138.813C327.676 137.767 328.542 136.952 329.613 136.547L329.825 136.466L332.878 144.554Z" fill="#3F3D56"/>
<path d="M78.0451 4.09607H73.5029V70.5438H78.0451V4.09607Z" fill="#3F3D56"/>
<path d="M75.7736 12.7434C79.2856 12.7434 82.1327 9.8907 82.1327 6.3717C82.1327 2.85271 79.2856 0 75.7736 0C72.2616 0 69.4146 2.85271 69.4146 6.3717C69.4146 9.8907 72.2616 12.7434 75.7736 12.7434Z" fill="#3F3D56"/>
<path d="M243.38 80.1014C246.892 80.1014 249.739 77.2487 249.739 73.7297C249.739 70.2107 246.892 67.358 243.38 67.358C239.868 67.358 237.021 70.2107 237.021 73.7297C237.021 77.2487 239.868 80.1014 243.38 80.1014Z" fill="#3F3D56"/>
<path d="M315.689 67.2422C318.776 69.0288 320.777 71.2653 321.692 73.9515C322.635 76.6544 322.259 79.479 320.562 82.4253C318.998 85.1406 316.881 86.746 314.211 87.2417C311.586 87.7252 308.808 87.1381 305.878 85.4805L303.79 88.6049L297.299 84.8479L301.724 76.6637L304.32 78.1665C306.542 79.4522 308.387 80.1546 309.857 80.2737C311.356 80.4095 312.522 79.7552 313.353 78.311C313.936 77.3 314.119 76.347 313.904 75.452C313.688 74.5571 313.09 73.8257 312.109 73.258C311.071 72.6569 310.088 72.4927 309.162 72.7653C308.252 73.0091 307.506 73.6364 306.924 74.6474L299.957 70.6149C300.914 68.8195 302.189 67.4396 303.783 66.475C305.406 65.5272 307.23 65.0997 309.253 65.1926C311.322 65.2733 313.468 65.9565 315.689 67.2422ZM294.143 98.0418C292.845 97.2904 291.993 96.2971 291.589 95.0619C291.231 93.8144 291.376 92.6274 292.025 91.5009C292.69 90.3455 293.651 89.6116 294.908 89.2992C296.194 89.0035 297.486 89.2314 298.784 89.9828C300.054 90.7175 300.868 91.7086 301.226 92.956C301.614 94.2201 301.475 95.4299 300.809 96.5853C300.161 97.7119 299.193 98.423 297.907 98.7186C296.667 99.0021 295.412 98.7765 294.143 98.0418Z" fill="#3485FF"/>
<path d="M317.711 98.9463C318.37 100.09 318.579 101.201 318.339 102.28C318.098 103.359 317.436 104.212 316.351 104.84C315.139 105.542 314.023 105.687 313.002 105.277C311.993 104.86 311.118 104.01 310.38 102.727L308.705 103.627L307.917 102.258L310.612 100.606L310.901 101.108C311.56 102.252 312.249 103.047 312.968 103.494C313.687 103.941 314.525 103.887 315.483 103.332C316.175 102.932 316.604 102.406 316.768 101.757C316.932 101.107 316.811 100.43 316.405 99.725C315.993 99.0086 315.471 98.556 314.839 98.3672C314.225 98.1832 313.584 98.2849 312.914 98.6723L312.056 97.1818C312.748 96.781 313.444 96.5864 314.143 96.5978C314.853 96.6025 315.516 96.8044 316.13 97.2036C316.752 97.6144 317.279 98.1952 317.711 98.9463ZM304.758 104.988C304.585 104.687 304.542 104.373 304.63 104.045C304.718 103.717 304.912 103.466 305.212 103.292C305.512 103.118 305.826 103.075 306.153 103.163C306.481 103.251 306.731 103.445 306.904 103.745C307.07 104.034 307.106 104.337 307.012 104.654C306.924 104.982 306.73 105.233 306.43 105.406C306.13 105.58 305.816 105.623 305.488 105.535C305.168 105.459 304.924 105.276 304.758 104.988Z" fill="#3485FF"/>
<path d="M283.557 77.9543C284.877 77.9737 285.938 78.3628 286.74 79.1213C287.542 79.8799 287.934 80.8858 287.916 82.139C287.895 83.5388 287.447 84.5723 286.57 85.2395C285.694 85.8933 284.516 86.2093 283.036 86.1875L282.948 88.0864L281.368 88.0631L281.335 84.9023L281.915 84.9109C283.234 84.9303 284.271 84.7455 285.023 84.3566C285.775 83.9676 286.16 83.2199 286.176 82.1133C286.188 81.3134 285.957 80.6766 285.484 80.2029C285.011 79.7292 284.368 79.4864 283.554 79.4744C282.728 79.4622 282.071 79.6793 281.585 80.1255C281.112 80.5586 280.869 81.1617 280.858 81.935L279.138 81.9096C279.15 81.1097 279.34 80.4124 279.709 79.8178C280.078 79.2098 280.591 78.744 281.25 78.4204C281.921 78.0969 282.69 77.9415 283.557 77.9543ZM282.088 92.1742C281.741 92.1691 281.45 92.0448 281.213 91.8013C280.977 91.5578 280.861 91.2627 280.866 90.9161C280.871 90.5694 280.996 90.2779 281.239 90.0415C281.483 89.805 281.778 89.6894 282.124 89.6945C282.458 89.6994 282.736 89.8235 282.959 90.0668C283.195 90.3103 283.311 90.6054 283.306 90.952C283.301 91.2986 283.177 91.5902 282.933 91.8266C282.703 92.0632 282.421 92.1791 282.088 92.1742Z" fill="#3485FF"/>
</g>
<defs>
<clipPath id="clip0_103_245">
<rect width="376" height="194" fill="white"/>
</clipPath>
</defs>
</svg>
